<?xml version="1.0" encoding="UTF-8" standalone="no"?>
<!-- Created with Inkscape (http://www.inkscape.org/) -->

<svg
   width="1024"
   height="512"
   viewBox="0 0 270.93333 135.46667"
   version="1.1"
   id="svg5"
   inkscape:version="1.1 (c68e22c387, 2021-05-23)"
   sodipodi:docname="logoooo.svg"
   xmlns:inkscape="http://www.inkscape.org/namespaces/inkscape"
   xmlns:sodipodi="http://sodipodi.sourceforge.net/DTD/sodipodi-0.dtd"
   xmlns="http://www.w3.org/2000/svg"
   xmlns:svg="http://www.w3.org/2000/svg">
  <sodipodi:namedview
     id="namedview7"
     pagecolor="#ffffff"
     bordercolor="#666666"
     borderopacity="1.0"
     inkscape:pageshadow="2"
     inkscape:pageopacity="0.0"
     inkscape:pagecheckerboard="0"
     inkscape:document-units="mm"
     showgrid="false"
     units="px"
     inkscape:zoom="0.74118968"
     inkscape:cx="520.10978"
     inkscape:cy="321.77998"
     inkscape:window-width="1920"
     inkscape:window-height="1017"
     inkscape:window-x="-8"
     inkscape:window-y="219"
     inkscape:window-maximized="1"
     inkscape:current-layer="layer1" />
  <defs
     id="defs2">
    <rect
       x="736.65356"
       y="882.36523"
       width="588.24347"
       height="706.97156"
       id="rect15488" />
    <rect
       x="174.04453"
       y="152.4576"
       width="809.5094"
       height="736.65356"
       id="rect1970" />
  </defs>
  <g
     inkscape:label="Layer 1"
     inkscape:groupmode="layer"
     id="layer1">
    <path
       d="m 164.46675,17.566994 q 0.0129,0.723477 -1.58905,0.891426 -1.58905,0.167949 -1.57613,0.878498 0.0129,0.426331 0.0776,1.278985 0.0646,0.852663 0.0775,1.278994 0.0258,1.421099 -0.0775,2.092895 -0.21963,1.472779 -4.09536,2.687166 -3.1781,0.994777 -5.24516,1.03353 -5.8265,0.103351 -9.49553,-2.079977 -4.45709,-2.635495 -4.54752,-8.113188 -0.16795,-9.9477102 13.52629,-10.1544122 1.92495,-0.02582 4.14704,0.594281 2.22208,0.620115 2.10581,0.620115 0.38757,-0.01291 0.99477,-0.697631 0.62011,-0.697632 1.12396,-0.710549 0.38757,-0.01291 0.67179,0.155031 0.33589,0.193784 0.32298,0.555518 -0.0129,0.232547 -0.56844,1.834512 -0.91726,2.5062992 -2.01538,5.5552082 -0.42633,1.240232 -0.90434,1.253159 -0.50384,0.01291 -0.63304,-0.413414 -0.0646,-0.452166 -0.23254,-1.317747 -0.28422,-1.123963 -0.94309,-2.454628 -0.74931,-1.52446 -1.44694,-2.157493 -0.95602,-0.8655812 -2.24792,-0.8397362 -1.03353,0.01291 -1.53738,3.3589622 -0.34881,2.299597 -0.31006,4.302059 0.0387,2.260844 0.68472,4.986773 0.89141,3.733623 2.28667,3.707778 0.99478,-0.01291 1.44695,-1.240232 0.32298,-0.865581 0.29713,-2.06706 -0.0129,-1.03352 -0.31005,-1.886183 -0.4005,-1.214396 -1.16273,-1.253149 -1.2919,-0.06464 -1.30482,-0.07754 -0.78806,-0.155031 -0.80099,-0.852663 0,-0.258382 0.23255,-0.465085 0.24546,-0.219629 0.50385,-0.219629 2.49338,-0.03872 8.20362,-0.65887 1.07229,-0.167949 3.16518,-0.348816 0.45217,-0.01291 0.80099,0.245456 0.36173,0.258382 0.37465,0.697632 z"
       style="font-size:28.2859px;line-height:0.85;font-family:'Goudy Stout';-inkscape-font-specification:'Goudy Stout';letter-spacing:0px;word-spacing:0px;white-space:pre;fill:#00aed8;fill-opacity:1;stroke:#000000;stroke-width:0.935389"
       id="path22982" />
    <path
       d="m 131.7353,42.692369 q 0.0129,0.72346 -1.58904,0.89141 -1.58905,0.16795 -1.57613,0.8785 0.0129,0.42633 0.0775,1.279 0.0646,0.85266 0.0775,1.27898 0.0258,1.42111 -0.0775,2.0929 -0.21963,1.47278 -4.09536,2.68717 -3.17809,0.99477 -5.24515,1.03353 -5.82652,0.10336 -9.49554,-2.07997 -4.45709,-2.6355 -4.54752,-8.1132 -0.16795,-9.9477 13.52629,-10.1544 1.92495,-0.0258 4.14703,0.59427 2.22209,0.62011 2.10581,0.62011 0.38758,-0.0129 0.99478,-0.69763 0.62012,-0.69763 1.12396,-0.71055 0.38757,-0.0129 0.67179,0.15503 0.3359,0.19379 0.32298,0.55552 -0.0129,0.23255 -0.56844,1.83451 -0.91726,2.50631 -2.01538,5.55522 -0.42633,1.24023 -0.90434,1.25315 -0.50384,0.0129 -0.63303,-0.41341 -0.0646,-0.45217 -0.23255,-1.31775 -0.28422,-1.12396 -0.94309,-2.45463 -0.74931,-1.52445 -1.44694,-2.15748 -0.95601,-0.86558 -2.24793,-0.83975 -1.03352,0.0129 -1.53737,3.35896 -0.34881,2.29961 -0.31006,4.30207 0.0387,2.26084 0.68472,4.98676 0.89141,3.73363 2.28668,3.7078 0.99478,-0.0129 1.44694,-1.24024 0.32297,-0.86558 0.29714,-2.06706 -0.0129,-1.03353 -0.31006,-1.88619 -0.40049,-1.21439 -1.16272,-1.25315 -1.29191,-0.0646 -1.30483,-0.0775 -0.78807,-0.15502 -0.80099,-0.85266 0,-0.25838 0.23255,-0.46509 0.24546,-0.21962 0.50385,-0.21962 2.49338,-0.0387 8.20362,-0.65888 1.07229,-0.16795 3.16518,-0.34881 0.45218,-0.0129 0.80099,0.24546 0.36173,0.25838 0.37465,0.69763 z"
       style="font-size:28.2859px;line-height:0.85;font-family:'Goudy Stout';-inkscape-font-specification:'Goudy Stout';letter-spacing:0px;word-spacing:0px;white-space:pre;stroke-width:0.935389"
       id="path22984" />
    <path
       d="m 164.50332,42.718199 q 0,5.58106 -4.65087,8.16488 -3.6561,2.04122 -9.71517,2.04122 -5.19347,0 -8.53952,-2.68718 -3.63027,-2.91971 -3.63027,-7.984 0,-5.14181 4.18579,-7.7127 3.47524,-2.13165 8.94002,-2.13165 5.65857,0 9.19839,2.26083 4.21163,2.7001 4.21163,8.0486 z m -12.98369,-8.33281 q -1.25315,0 -1.92495,3.17809 -0.46508,2.19626 -0.46508,4.23747 0,2.73885 0.40049,5.30974 0.62012,3.9791 1.91202,3.9791 2.48048,0 2.48048,-7.99693 0,-8.70747 -2.40296,-8.70747 z"
       style="font-size:28.2859px;line-height:0.85;font-family:'Goudy Stout';-inkscape-font-specification:'Goudy Stout';letter-spacing:0px;word-spacing:0px;white-space:pre;fill:#00aed8;fill-opacity:1;stroke:#000000;stroke-width:0.935389"
       id="path22986" />
    <path
       d="m 197.24032,42.718199 q 0,5.58106 -4.65088,8.16488 -3.65611,2.04122 -9.71516,2.04122 -5.19348,0 -8.53953,-2.68718 -3.63026,-2.91971 -3.63026,-7.984 0,-5.14181 4.18579,-7.7127 3.47523,-2.13165 8.94001,-2.13165 5.65856,0 9.1984,2.26083 4.21163,2.7001 4.21163,8.0486 z m -12.9837,-8.33281 q -1.25315,0 -1.92494,3.17809 -0.4651,2.19626 -0.4651,4.23747 0,2.73885 0.4005,5.30974 0.62012,3.9791 1.91203,3.9791 2.48046,0 2.48046,-7.99693 0,-8.70747 -2.40295,-8.70747 z"
       style="font-size:28.2859px;line-height:0.85;font-family:'Goudy Stout';-inkscape-font-specification:'Goudy Stout';letter-spacing:0px;word-spacing:0px;white-space:pre;stroke-width:0.935389"
       id="path22988" />
    <path
       d="m 229.97731,42.718199 q 0,5.58106 -4.65087,8.16488 -3.65611,2.04122 -9.71517,2.04122 -5.19347,0 -8.53951,-2.68718 -3.63028,-2.91971 -3.63028,-7.984 0,-5.14181 4.18579,-7.7127 3.47524,-2.13165 8.94002,-2.13165 5.65857,0 9.1984,2.26083 4.21162,2.7001 4.21162,8.0486 z m -12.98369,-8.33281 q -1.25315,0 -1.92495,3.17809 -0.46508,2.19626 -0.46508,4.23747 0,2.73885 0.40049,5.30974 0.62011,3.9791 1.91202,3.9791 2.48047,0 2.48047,-7.99693 0,-8.70747 -2.40295,-8.70747 z"
       style="font-size:28.2859px;line-height:0.85;font-family:'Goudy Stout';-inkscape-font-specification:'Goudy Stout';letter-spacing:0px;word-spacing:0px;white-space:pre;stroke-width:0.935389"
       id="path22990" />
    <path
       d="m 262.71431,42.718199 q 0,5.58106 -4.65088,8.16488 -3.6561,2.04122 -9.71516,2.04122 -5.19347,0 -8.53953,-2.68718 -3.63026,-2.91971 -3.63026,-7.984 0,-5.14181 4.18579,-7.7127 3.47523,-2.13165 8.94001,-2.13165 5.65856,0 9.1984,2.26083 4.21163,2.7001 4.21163,8.0486 z m -12.98369,-8.33281 q -1.25316,0 -1.92495,3.17809 -0.46509,2.19626 -0.46509,4.23747 0,2.73885 0.40049,5.30974 0.62012,3.9791 1.91203,3.9791 2.48046,0 2.48046,-7.99693 0,-8.70747 -2.40294,-8.70747 z"
       style="font-size:28.2859px;line-height:0.85;font-family:'Goudy Stout';-inkscape-font-specification:'Goudy Stout';letter-spacing:0px;word-spacing:0px;white-space:pre;stroke-width:0.935389"
       id="path22992" />
    <path
       d="m 98.998298,67.817739 q 0.0129,0.72347 -1.589053,0.89142 -1.58905,0.16795 -1.57613,0.8785 0.0129,0.42633 0.0775,1.27898 0.0645,0.85267 0.0775,1.279 0.0258,1.4211 -0.0775,2.09289 -0.21963,1.47278 -4.09535,2.68718 -3.1781,0.99476 -5.24516,1.03352 -5.826508,0.10336 -9.495528,-2.07997 -4.45709,-2.63549 -4.54752,-8.1132 -0.16795,-9.94771 13.526288,-10.15441 1.92494,-0.0258 4.14703,0.59428 2.22208,0.62012 2.10582,0.62012 0.38756,-0.0129 0.99476,-0.69763 0.62012,-0.69763 1.12397,-0.71055 0.38756,-0.0129 0.67178,0.15503 0.3359,0.19378 0.32298,0.55552 -0.0129,0.23254 -0.56843,1.83451 -0.91726,2.50631 -2.01538,5.55521 -0.42633,1.24023 -0.90435,1.25316 -0.50383,0.0129 -0.63303,-0.41342 -0.0646,-0.45216 -0.23255,-1.31774 -0.28421,-1.12397 -0.94308,-2.45463 -0.74931,-1.52446 -1.44695,-2.1575 -0.95601,-0.86558 -2.24791,-0.83973 -1.03353,0.0129 -1.53738,3.35896 -0.34882,2.2996 -0.31006,4.30206 0.0387,2.26084 0.68471,4.98677 0.89142,3.73362 2.28668,3.70778 0.99478,-0.0129 1.44694,-1.24023 0.32298,-0.86558 0.29714,-2.06705 -0.0129,-1.03353 -0.31005,-1.8862 -0.4005,-1.21439 -1.16273,-1.25315 -1.2919,-0.0646 -1.30482,-0.0775 -0.78806,-0.15503 -0.80099,-0.85266 0,-0.25838 0.23255,-0.46508 0.24546,-0.21963 0.50384,-0.21963 2.49338,-0.0387 8.20362,-0.65887 1.0723,-0.16795 3.16519,-0.34882 0.452173,-0.0129 0.800983,0.24547 0.36174,0.25838 0.37465,0.69763 z"
       style="font-size:28.2859px;line-height:0.85;font-family:'Goudy Stout';-inkscape-font-specification:'Goudy Stout';letter-spacing:0px;word-spacing:0px;white-space:pre;stroke-width:0.935389"
       id="path22994" />
    <path
       d="m 131.76662,67.843579 q 0,5.58105 -4.65088,8.16487 -3.6561,2.04121 -9.71515,2.04121 -5.19349,0 -8.53953,-2.68716 -3.63026,-2.91973 -3.63026,-7.98401 0,-5.1418 4.18578,-7.7127 3.47524,-2.13165 8.94001,-2.13165 5.65857,0 9.1984,2.26084 4.21163,2.70009 4.21163,8.0486 z m -12.9837,-8.33282 q -1.25315,0 -1.92494,3.1781 -0.46509,2.19624 -0.46509,4.23746 0,2.73885 0.4005,5.30975 0.62011,3.97908 1.91202,3.97908 2.48047,0 2.48047,-7.99692 0,-8.70747 -2.40296,-8.70747 z"
       style="font-size:28.2859px;line-height:0.85;font-family:'Goudy Stout';-inkscape-font-specification:'Goudy Stout';letter-spacing:0px;word-spacing:0px;white-space:pre;stroke-width:0.935389"
       id="path22996" />
    <path
       d="m 164.50361,67.843579 q 0,5.58105 -4.65087,8.16487 -3.65611,2.04121 -9.71517,2.04121 -5.19348,0 -8.53952,-2.68716 -3.63027,-2.91973 -3.63027,-7.98401 0,-5.1418 4.18579,-7.7127 3.47523,-2.13165 8.94002,-2.13165 5.65856,0 9.19839,2.26084 4.21163,2.70009 4.21163,8.0486 z m -12.98369,-8.33282 q -1.25316,0 -1.92495,3.1781 -0.46509,2.19624 -0.46509,4.23746 0,2.73885 0.4005,5.30975 0.62011,3.97908 1.91202,3.97908 2.48047,0 2.48047,-7.99692 0,-8.70747 -2.40295,-8.70747 z"
       style="font-size:28.2859px;line-height:0.85;font-family:'Goudy Stout';-inkscape-font-specification:'Goudy Stout';letter-spacing:0px;word-spacing:0px;white-space:pre;fill:#00aed8;fill-opacity:1;stroke:#000000;stroke-width:0.935389"
       id="path22998" />
    <path
       d="m 197.2406,67.843579 q 0,5.58105 -4.65088,8.16487 -3.65611,2.04121 -9.71516,2.04121 -5.19347,0 -8.53952,-2.68716 -3.63027,-2.91973 -3.63027,-7.98401 0,-5.1418 4.18579,-7.7127 3.47524,-2.13165 8.94001,-2.13165 5.65857,0 9.1984,2.26084 4.21163,2.70009 4.21163,8.0486 z m -12.98369,-8.33282 q -1.25315,0 -1.92495,3.1781 -0.46509,2.19624 -0.46509,4.23746 0,2.73885 0.40049,5.30975 0.62012,3.97908 1.91203,3.97908 2.48047,0 2.48047,-7.99692 0,-8.70747 -2.40295,-8.70747 z"
       style="font-size:28.2859px;line-height:0.85;font-family:'Goudy Stout';-inkscape-font-specification:'Goudy Stout';letter-spacing:0px;word-spacing:0px;white-space:pre;stroke-width:0.935389"
       id="path23000" />
    <path
       d="m 229.97759,67.843579 q 0,5.58105 -4.65087,8.16487 -3.65611,2.04121 -9.71516,2.04121 -5.19348,0 -8.53953,-2.68716 -3.63027,-2.91973 -3.63027,-7.98401 0,-5.1418 4.18579,-7.7127 3.47524,-2.13165 8.94002,-2.13165 5.65856,0 9.1984,2.26084 4.21162,2.70009 4.21162,8.0486 z m -12.98369,-8.33282 q -1.25316,0 -1.92495,3.1781 -0.46509,2.19624 -0.46509,4.23746 0,2.73885 0.4005,5.30975 0.62011,3.97908 1.91203,3.97908 2.48046,0 2.48046,-7.99692 0,-8.70747 -2.40295,-8.70747 z"
       style="font-size:28.2859px;line-height:0.85;font-family:'Goudy Stout';-inkscape-font-specification:'Goudy Stout';letter-spacing:0px;word-spacing:0px;white-space:pre;stroke-width:0.935389"
       id="path23002" />
    <path
       d="m 66.261049,92.943109 q 0.0129,0.72346 -1.58905,0.89141 -1.58905,0.16795 -1.57613,0.8785 0.0129,0.42633 0.0775,1.279 0.0646,0.85266 0.0775,1.27899 0.0258,1.4211 -0.0775,2.09289 -0.21963,1.472771 -4.095356,2.687171 -3.178096,0.99477 -5.245155,1.03353 -5.826508,0.10335 -9.495533,-2.07998 -4.45709,-2.635491 -4.547523,-8.113181 -0.167949,-9.94771 13.526291,-10.15441 1.924946,-0.0258 4.147037,0.59427 2.222081,0.62012 2.105812,0.62012 0.387569,-0.0129 0.994767,-0.69763 0.62012,-0.69763 1.12396,-0.71056 0.38757,-0.0129 0.67179,0.15503 0.3359,0.19379 0.32298,0.55553 -0.0129,0.23254 -0.56844,1.8345 -0.91726,2.50631 -2.015374,5.55522 -0.426332,1.24023 -0.904343,1.25315 -0.503838,0.0129 -0.633034,-0.41341 -0.06463,-0.45217 -0.232547,-1.31775 -0.284218,-1.12396 -0.943087,-2.45463 -0.749312,-1.52445 -1.446943,-2.15748 -0.956014,-0.86558 -2.247917,-0.83975 -1.03353,0.0129 -1.537377,3.35897 -0.348816,2.2996 -0.310063,4.30206 0.03872,2.26084 0.684714,4.98677 0.891416,3.733621 2.28668,3.707781 0.994776,-0.0129 1.446943,-1.240231 0.32298,-0.86558 0.297136,-2.06706 -0.01291,-1.03353 -0.310054,-1.88618 -0.400496,-1.2144 -1.162725,-1.25316 -1.291903,-0.0646 -1.304821,-0.0776 -0.788065,-0.15502 -0.800992,-0.85265 0,-0.25838 0.232547,-0.46509 0.245465,-0.21962 0.503847,-0.21962 2.493382,-0.0387 8.20362,-0.65888 1.07229,-0.16795 3.16519,-0.34882 0.45216,-0.0129 0.80098,0.24547 0.36173,0.25838 0.37465,0.69763 z"
       style="font-size:28.2859px;line-height:0.85;font-family:'Goudy Stout';-inkscape-font-specification:'Goudy Stout';letter-spacing:0px;word-spacing:0px;white-space:pre;stroke-width:0.935389"
       id="path23004" />
    <path
       d="m 99.029621,92.968939 q 0,5.58106 -4.65088,8.164881 -3.6561,2.04121 -9.715158,2.04121 -5.19348,0 -8.53952,-2.68717 -3.63026,-2.919711 -3.63026,-7.984001 0,-5.14181 4.18578,-7.7127 3.47524,-2.13165 8.94002,-2.13165 5.658548,0 9.198388,2.26084 4.21163,2.70009 4.21163,8.04859 z m -12.98369,-8.33281 q -1.253158,0 -1.924948,3.1781 -0.46509,2.19625 -0.46509,4.23746 0,2.73885 0.40049,5.30975 0.62012,3.979081 1.912028,3.979081 2.48046,0 2.48046,-7.996921 0,-8.70747 -2.40294,-8.70747 z"
       style="font-size:28.2859px;line-height:0.85;font-family:'Goudy Stout';-inkscape-font-specification:'Goudy Stout';letter-spacing:0px;word-spacing:0px;white-space:pre;stroke-width:0.935389"
       id="path23006" />
    <path
       d="m 131.7666,92.968939 q 0,5.58106 -4.65087,8.164881 -3.65611,2.04121 -9.71516,2.04121 -5.19348,0 -8.53952,-2.68717 -3.63027,-2.919711 -3.63027,-7.984001 0,-5.14181 4.18579,-7.7127 3.47524,-2.13165 8.94001,-2.13165 5.65857,0 9.1984,2.26084 4.21162,2.70009 4.21162,8.04859 z m -12.98369,-8.33281 q -1.25315,0 -1.92494,3.1781 -0.46509,2.19625 -0.46509,4.23746 0,2.73885 0.40049,5.30975 0.62012,3.979081 1.91203,3.979081 2.48047,0 2.48047,-7.996921 0,-8.70747 -2.40296,-8.70747 z"
       style="font-size:28.2859px;line-height:0.85;font-family:'Goudy Stout';-inkscape-font-specification:'Goudy Stout';letter-spacing:0px;word-spacing:0px;white-space:pre;stroke-width:0.935389"
       id="path23008" />
    <path
       d="m 164.5036,92.968939 q 0,5.58106 -4.65087,8.164881 -3.65611,2.04121 -9.71517,2.04121 -5.19347,0 -8.53952,-2.68717 -3.63027,-2.919711 -3.63027,-7.984001 0,-5.14181 4.18579,-7.7127 3.47523,-2.13165 8.94002,-2.13165 5.65856,0 9.19839,2.26084 4.21163,2.70009 4.21163,8.04859 z m -12.98369,-8.33281 q -1.25316,0 -1.92495,3.1781 -0.46509,2.19625 -0.46509,4.23746 0,2.73885 0.4005,5.30975 0.62011,3.979081 1.91202,3.979081 2.48047,0 2.48047,-7.996921 0,-8.70747 -2.40295,-8.70747 z"
       style="font-size:28.2859px;line-height:0.85;font-family:'Goudy Stout';-inkscape-font-specification:'Goudy Stout';letter-spacing:0px;word-spacing:0px;white-space:pre;fill:#00aed8;fill-opacity:1;stroke:#000000;stroke-width:0.935389"
       id="path23010" />
    <path
       d="m 197.24059,92.968939 q 0,5.58106 -4.65088,8.164881 -3.6561,2.04121 -9.71516,2.04121 -5.19347,0 -8.53952,-2.68717 -3.63026,-2.919711 -3.63026,-7.984001 0,-5.14181 4.18578,-7.7127 3.47524,-2.13165 8.94001,-2.13165 5.65857,0 9.1984,2.26084 4.21163,2.70009 4.21163,8.04859 z m -12.98369,-8.33281 q -1.25315,0 -1.92495,3.1781 -0.46509,2.19625 -0.46509,4.23746 0,2.73885 0.4005,5.30975 0.62012,3.979081 1.91202,3.979081 2.48047,0 2.48047,-7.996921 0,-8.70747 -2.40295,-8.70747 z"
       style="font-size:28.2859px;line-height:0.85;font-family:'Goudy Stout';-inkscape-font-specification:'Goudy Stout';letter-spacing:0px;word-spacing:0px;white-space:pre;stroke-width:0.935389"
       id="path23012" />
    <path
       d="m 34.692259,118.06848 q 0.01291,0.72347 -1.589047,0.89142 -1.589048,0.16794 -1.57613,0.87849 0.01291,0.42634 0.07754,1.279 0.06464,0.85265 0.07754,1.27898 0.02582,1.4211 -0.07754,2.0929 -0.219629,1.47278 -4.095356,2.68717 -3.178095,0.99477 -5.245155,1.03352 -5.826508,0.10336 -9.495532,-2.07996 -4.4570901,-2.6355 -4.5475241,-8.1132 -0.167949,-9.9477 13.5262921,-10.15441 1.924945,-0.0258 4.147036,0.59428 2.222081,0.62011 2.105813,0.62011 0.387569,-0.0129 0.994767,-0.69763 0.620116,-0.69763 1.123963,-0.71055 0.387569,-0.0129 0.671787,0.15504 0.335898,0.19378 0.32298,0.55551 -0.01291,0.23255 -0.568436,1.83452 -0.917261,2.5063 -2.015379,5.5552 -0.426331,1.24024 -0.904343,1.25316 -0.503838,0.0129 -0.633034,-0.41341 -0.06464,-0.45217 -0.232547,-1.31775 -0.284218,-1.12396 -0.943087,-2.45463 -0.749311,-1.52445 -1.446943,-2.15749 -0.956014,-0.86558 -2.247926,-0.83974 -1.03352,0.0129 -1.537368,3.35897 -0.348815,2.29959 -0.310062,4.30205 0.03872,2.26085 0.684714,4.98678 0.891416,3.73362 2.286679,3.70777 0.994776,-0.0129 1.446943,-1.24023 0.322981,-0.86558 0.297136,-2.06705 -0.01291,-1.03353 -0.310053,-1.88619 -0.400496,-1.2144 -1.162726,-1.25315 -1.291903,-0.0646 -1.30482,-0.0775 -0.788065,-0.15503 -0.800992,-0.85267 0,-0.25838 0.232547,-0.46508 0.245464,-0.21963 0.503847,-0.21963 2.493381,-0.0387 8.20362,-0.65887 1.072293,-0.16795 3.165187,-0.34881 0.452167,-0.0129 0.800983,0.24546 0.361734,0.25838 0.374651,0.69763 z"
       style="font-size:28.2859px;line-height:0.85;font-family:'Goudy Stout';-inkscape-font-specification:'Goudy Stout';letter-spacing:0px;word-spacing:0px;white-space:pre;stroke-width:0.935389"
       id="path23014" />
    <path
       d="m 66.292372,118.09432 q 0,5.58105 -4.650881,8.16486 -3.656098,2.04123 -9.715153,2.04123 -5.193484,0 -8.539528,-2.68718 -3.630263,-2.91971 -3.630263,-7.984 0,-5.1418 4.185781,-7.7127 3.47524,-2.13166 8.940014,-2.13166 5.658569,0 9.1984,2.26085 4.21163,2.70009 4.21163,8.0486 z M 53.308674,109.7615 q -1.25315,0 -1.924946,3.17809 -0.465084,2.19625 -0.465084,4.23747 0,2.73885 0.400496,5.30975 0.620115,3.97908 1.912018,3.97908 2.480473,0 2.480473,-7.99692 0,-8.70747 -2.402957,-8.70747 z"
       style="font-size:28.2859px;line-height:0.85;font-family:'Goudy Stout';-inkscape-font-specification:'Goudy Stout';letter-spacing:0px;word-spacing:0px;white-space:pre;stroke-width:0.935389"
       id="path23016" />
    <path
       d="m 99.02936,118.09432 q 0,5.58105 -4.65088,8.16486 -3.6561,2.04123 -9.715158,2.04123 -5.19347,0 -8.53952,-2.68718 -3.63027,-2.91971 -3.63027,-7.984 0,-5.1418 4.18579,-7.7127 3.47524,-2.13166 8.94002,-2.13166 5.658558,0 9.198388,2.26085 4.21163,2.70009 4.21163,8.0486 z M 86.045672,109.7615 q -1.25315,0 -1.92495,3.17809 -0.46508,2.19625 -0.46508,4.23747 0,2.73885 0.40048,5.30975 0.62012,3.97908 1.91203,3.97908 2.480468,0 2.480468,-7.99692 0,-8.70747 -2.402948,-8.70747 z"
       style="font-size:28.2859px;line-height:0.85;font-family:'Goudy Stout';-inkscape-font-specification:'Goudy Stout';letter-spacing:0px;word-spacing:0px;white-space:pre;stroke-width:0.935389"
       id="path23018" />
    <path
       d="m 131.76635,118.09432 q 0,5.58105 -4.65087,8.16486 -3.65611,2.04123 -9.71516,2.04123 -5.19349,0 -8.53953,-2.68718 -3.63026,-2.91971 -3.63026,-7.984 0,-5.1418 4.18579,-7.7127 3.47523,-2.13166 8.94001,-2.13166 5.65856,0 9.1984,2.26085 4.21162,2.70009 4.21162,8.0486 z m -12.9837,-8.33282 q -1.25315,0 -1.92493,3.17809 -0.4651,2.19625 -0.4651,4.23747 0,2.73885 0.4005,5.30975 0.62012,3.97908 1.91203,3.97908 2.48046,0 2.48046,-7.99692 0,-8.70747 -2.40296,-8.70747 z"
       style="font-size:28.2859px;line-height:0.85;font-family:'Goudy Stout';-inkscape-font-specification:'Goudy Stout';letter-spacing:0px;word-spacing:0px;white-space:pre;stroke-width:0.935389"
       id="path23020" />
    <path
       d="m 164.50335,118.09432 q 0,5.58105 -4.65087,8.16486 -3.65611,2.04123 -9.71517,2.04123 -5.19347,0 -8.53952,-2.68718 -3.63027,-2.91971 -3.63027,-7.984 0,-5.1418 4.18579,-7.7127 3.47524,-2.13166 8.94002,-2.13166 5.65857,0 9.19839,2.26085 4.21163,2.70009 4.21163,8.0486 z m -12.98369,-8.33282 q -1.25315,0 -1.92495,3.17809 -0.46508,2.19625 -0.46508,4.23747 0,2.73885 0.40049,5.30975 0.62011,3.97908 1.91202,3.97908 2.48047,0 2.48047,-7.99692 0,-8.70747 -2.40295,-8.70747 z"
       style="font-size:28.2859px;line-height:0.85;font-family:'Goudy Stout';-inkscape-font-specification:'Goudy Stout';letter-spacing:0px;word-spacing:0px;white-space:pre;fill:#00aed8;fill-opacity:1;stroke:#000000;stroke-width:0.935389"
       id="path23022" />
    <text
       xml:space="preserve"
       transform="scale(0.26458333)"
       id="text15486"
       style="font-size:40px;line-height:1.25;font-family:Impact;-inkscape-font-specification:Impact;letter-spacing:0px;word-spacing:0px;white-space:pre;shape-inside:url(#rect15488)" />
  </g>
</svg>
